<svg width="134" height="174" viewBox="0 0 134 174" fill="none" xmlns="http://www.w3.org/2000/svg">
<path d="M104.638 95.1275C117.044 93.3456 126.017 91.9069 131.556 90.8115L133.87 122.155C129.992 122.922 125.958 123.624 121.767 124.261L108.917 126.226L114.15 164.331L85.5062 173.017L77.6817 129.813C47.4069 132.922 23.2922 133.71 5.33766 132.176L0.484236 110.544C3.605 84.1218 5.095 56.4869 4.95425 27.6396L4.92648 2.03158L37.8739 0.552379C39.9187 10.8923 40.495 21.8103 39.6027 33.3066C38.7105 44.8029 37.8503 54.2783 37.0221 61.7328L32.172 102.695C35.1617 102.775 39.2963 102.581 44.5758 102.113L58.6977 100.759C63.0357 100.381 67.5492 99.9199 72.2383 99.3763L61.6526 40.0261L92.8505 28.2446C94.1347 31.8279 95.3884 36.7122 96.6116 42.8977C98.5833 52.8683 100.251 62.7551 101.614 72.5583L104.638 95.1275Z" fill="#FFAE1E"/>
</svg>
