<svg width="600" height="400" viewBox="0 0 600 400" fill="none" xmlns="http://www.w3.org/2000/svg">
<g clip-path="url(#clip0_1912_17233)">
<path d="M600 0H0V400H600V0Z" fill="black"/>
<path d="M216.038 212.443H200.998V189.243H216.038V192.963H204.998V198.963H213.558V202.763H204.998V208.723H216.038V212.443ZM240.043 207.043C240.043 208.59 239.51 209.883 238.443 210.923C237.377 211.936 236.017 212.443 234.363 212.443H222.443V189.243H234.363C236.017 189.243 237.377 189.763 238.443 190.803C239.51 191.816 240.043 193.096 240.043 194.643V207.043ZM235.963 207.243V194.443C235.963 194.043 235.817 193.696 235.523 193.403C235.257 193.11 234.937 192.963 234.563 192.963H226.443V208.723H234.563C234.937 208.723 235.257 208.576 235.523 208.283C235.817 207.99 235.963 207.643 235.963 207.243ZM257.228 212.443H246.428V208.803H249.788V192.883H246.428V189.243H257.228V192.883H253.828V208.803H257.228V212.443ZM280.735 192.963H273.695V212.443H269.415V192.963H262.415V189.243H280.735V192.963ZM296.72 212.443H285.92V208.803H289.28V192.883H285.92V189.243H296.72V192.883H293.32V208.803H296.72V212.443ZM321.427 207.043C321.427 208.59 320.894 209.883 319.827 210.923C318.761 211.936 317.401 212.443 315.747 212.443H308.787C307.134 212.443 305.774 211.936 304.707 210.923C303.641 209.883 303.107 208.59 303.107 207.043V194.643C303.107 193.096 303.641 191.816 304.707 190.803C305.774 189.763 307.134 189.243 308.787 189.243H315.747C317.401 189.243 318.761 189.763 319.827 190.803C320.894 191.816 321.427 193.096 321.427 194.643V207.043ZM317.427 207.243V194.443C317.427 194.043 317.281 193.696 316.987 193.403C316.721 193.11 316.401 192.963 316.027 192.963H308.507C308.134 192.963 307.801 193.11 307.507 193.403C307.241 193.696 307.107 194.043 307.107 194.443V207.243C307.107 207.643 307.241 207.99 307.507 208.283C307.801 208.576 308.134 208.723 308.507 208.723H316.027C316.401 208.723 316.721 208.576 316.987 208.283C317.281 207.99 317.427 207.643 317.427 207.243ZM345.274 212.443H341.194V205.403L331.914 195.723V212.443H327.834V189.243H331.274L341.194 199.683V189.243H345.274V212.443ZM368.782 207.123C368.782 208.67 368.249 209.963 367.182 211.003C366.115 212.016 364.755 212.523 363.102 212.523H356.942C355.289 212.523 353.929 212.016 352.862 211.003C351.795 209.963 351.262 208.67 351.262 207.123V205.643H355.262V207.323C355.262 207.723 355.395 208.07 355.662 208.363C355.955 208.656 356.289 208.803 356.662 208.803H363.382C363.755 208.803 364.075 208.656 364.342 208.363C364.635 208.07 364.782 207.723 364.782 207.323V204.323C364.782 203.87 364.622 203.523 364.302 203.283C363.982 203.016 363.515 202.843 362.902 202.763C362.289 202.683 361.689 202.643 361.102 202.643C360.542 202.616 359.835 202.616 358.982 202.643C358.155 202.67 357.529 202.683 357.102 202.683C355.449 202.63 354.089 202.096 353.022 201.083C351.955 200.07 351.422 198.79 351.422 197.243V194.643C351.422 193.096 351.955 191.816 353.022 190.803C354.089 189.763 355.449 189.243 357.102 189.243H362.782C364.435 189.243 365.795 189.763 366.862 190.803C367.929 191.816 368.462 193.096 368.462 194.643V196.163H364.462V194.443C364.462 194.043 364.315 193.696 364.022 193.403C363.755 193.11 363.435 192.963 363.062 192.963H356.822C356.449 192.963 356.115 193.11 355.822 193.403C355.555 193.696 355.422 194.043 355.422 194.443V197.483C355.422 197.936 355.582 198.296 355.902 198.563C356.222 198.803 356.689 198.963 357.302 199.043C357.942 199.123 358.529 199.176 359.062 199.203C359.622 199.203 360.329 199.19 361.182 199.163C362.062 199.11 362.702 199.083 363.102 199.083C364.729 199.136 366.075 199.67 367.142 200.683C368.235 201.696 368.782 202.976 368.782 204.523V207.123Z" fill="white"/>
<path d="M427.844 200.923C427.844 198.005 426.228 195.474 423.876 194.276C424.161 193.471 424.316 192.604 424.316 191.689C424.316 187.609 421.158 184.307 417.266 184.307C416.397 184.307 415.567 184.462 414.8 184.769C413.657 182.296 411.241 180.609 408.453 180.609C405.665 180.609 403.254 182.302 402.106 184.765C401.321 184.456 400.484 184.3 399.64 184.303C395.743 184.303 392.59 187.609 392.59 191.691C392.59 192.603 392.743 193.469 393.028 194.276C390.678 195.476 389.062 198.003 389.062 200.923C389.062 203.684 390.507 206.091 392.65 207.361C392.611 207.675 392.59 207.989 392.59 208.311C392.59 212.391 395.744 215.699 399.64 215.699C400.509 215.699 401.339 215.538 402.105 215.235C403.249 217.698 405.663 219.391 408.453 219.391C411.245 219.391 413.655 217.7 414.8 215.235C415.565 215.536 416.397 215.693 417.266 215.693C421.163 215.693 424.316 212.389 424.316 208.305C424.316 207.985 424.295 207.671 424.256 207.359C426.393 206.091 427.844 203.684 427.844 200.925V200.923ZM415.627 194.767L407.623 206.769C407.523 206.921 407.393 207.052 407.242 207.153C407.091 207.255 406.921 207.326 406.742 207.362C406.564 207.397 406.38 207.398 406.201 207.362C406.023 207.327 405.853 207.256 405.701 207.155L405.488 206.981L401.028 202.521C400.9 202.392 400.798 202.24 400.728 202.071C400.659 201.903 400.623 201.723 400.623 201.542C400.623 201.36 400.659 201.18 400.728 201.012C400.798 200.844 400.9 200.691 401.028 200.562C401.157 200.434 401.31 200.332 401.478 200.262C401.646 200.193 401.826 200.157 402.008 200.157C402.189 200.157 402.37 200.193 402.538 200.262C402.706 200.332 402.858 200.434 402.987 200.562L406.254 203.826L413.318 193.227C413.522 192.921 413.839 192.708 414.2 192.636C414.378 192.601 414.562 192.6 414.741 192.636C414.919 192.671 415.089 192.741 415.241 192.842C415.392 192.943 415.522 193.073 415.624 193.224C415.725 193.375 415.796 193.545 415.831 193.724C415.867 193.902 415.867 194.086 415.832 194.265C415.797 194.443 415.727 194.613 415.626 194.765V194.767H415.627Z" fill="white"/>
</g>
<defs>
<clipPath id="clip0_1912_17233">
<rect width="600" height="400" fill="white"/>
</clipPath>
</defs>
</svg>
