<svg width="276" height="275" viewBox="0 0 276 275" fill="none" xmlns="http://www.w3.org/2000/svg">
<path fill-rule="evenodd" clip-rule="evenodd" d="M84.0536 93.9283L83.13 76.8079L70.2577 77.5023L71.8757 107.495L98.6627 106.05L100.294 118.745L113.08 117.102L109.922 92.5328L84.0536 93.9283Z" fill="#FFAE1E"/>
<path d="M52.7823 190.194C48.0139 185.914 47.6182 178.579 51.8984 173.811L164.87 47.9557C169.15 43.1874 176.485 42.7917 181.253 47.0719L266.946 123.993C271.715 128.273 272.11 135.608 267.83 140.376L154.859 266.231C150.579 270.999 143.243 271.395 138.475 267.115L52.7823 190.194Z" fill="#FFAE1E"/>
<path d="M212.449 137.052L146.191 212.068L155.017 219.863L221.274 144.847L212.449 137.052Z" fill="black"/>
<path d="M223.66 146.986L221.276 144.846L192.309 177.644L223.66 146.986Z" fill="black"/>
<path d="M72.5664 184.577L177.441 67.7425L217.603 103.793L112.728 220.628L72.5664 184.577Z" fill="black"/>
<path fill-rule="evenodd" clip-rule="evenodd" d="M113.965 197.48L106.328 165.023L111.904 163.711L119.54 196.168L113.965 197.48Z" fill="black"/>
<path fill-rule="evenodd" clip-rule="evenodd" d="M173.629 133.998L165.992 101.541L171.568 100.229L179.205 132.686L173.629 133.998Z" fill="black"/>
<path fill-rule="evenodd" clip-rule="evenodd" d="M129.82 179.565L97.3626 187.202L96.0508 181.627L128.508 173.99L129.82 179.565Z" fill="black"/>
<path fill-rule="evenodd" clip-rule="evenodd" d="M189.484 116.084L157.027 123.721L155.715 118.145L188.172 110.508L189.484 116.084Z" fill="black"/>
<path fill-rule="evenodd" clip-rule="evenodd" d="M112.836 197.779L105.199 165.323L110.775 164.011L118.412 196.468L112.836 197.779Z" fill="#FCFCFC"/>
<path fill-rule="evenodd" clip-rule="evenodd" d="M172.492 134.298L164.855 101.841L170.431 100.529L178.068 132.986L172.492 134.298Z" fill="#FCFCFC"/>
<path fill-rule="evenodd" clip-rule="evenodd" d="M128.683 179.864L96.2259 187.501L94.9141 181.926L127.371 174.289L128.683 179.864Z" fill="#FCFCFC"/>
<path fill-rule="evenodd" clip-rule="evenodd" d="M188.347 116.382L155.89 124.019L154.578 118.443L187.035 110.806L188.347 116.382Z" fill="#FCFCFC"/>
<path d="M221.076 106.542L217.79 103.592L166.664 160.549L221.076 106.542Z" fill="black"/>
<path d="M62.874 79.2513C61.2846 77.8246 61.1527 75.3795 62.5794 73.79L71.833 63.4811C73.2597 61.8917 75.7048 61.7598 77.2943 63.1865L87.6032 72.4401C89.1926 73.8668 89.3245 76.3119 87.8978 77.9014L78.6442 88.2103C77.2175 89.7997 74.7724 89.9316 73.1829 88.5049L62.874 79.2513Z" fill="#F51157"/>
<path fill-rule="evenodd" clip-rule="evenodd" d="M73.7649 84.8277L66.0977 77.9453L67.8199 76.0267L75.4871 82.9091L73.7649 84.8277Z" fill="#FCFCFC"/>
</svg>
