
<svg version="1.0" xmlns="http://www.w3.org/2000/svg"
 width="30.000000pt" height="30.000000pt" viewBox="0 0 240.000000 240.000000"
 preserveAspectRatio="xMidYMid meet">

<g transform="translate(0.000000,240.000000) scale(0.100000,-0.100000)"
fill="#fcd535" stroke="none">
<path d="M0 1200 l0 -1200 1200 0 1200 0 0 1200 0 1200 -1200 0 -1200 0 0
-1200z m1488 637 l282 -282 -105 -105 -105 -105 -180 180 -180 180 -178 -178
-179 -179 -99 102 c-54 56 -101 104 -104 106 -4 5 551 564 560 564 3 0 132
-127 288 -283z m-898 -742 l-105 -105 -105 105 -105 105 105 105 105 105 105
-105 105 -105 -105 -105z m1430 0 l-105 -105 -105 105 -105 105 105 105 105
105 105 -105 105 -105 -105 -105z m-710 201 l101 -100 -105 -105 c-58 -58
-107 -103 -108 -100 -2 2 -48 51 -103 107 l-100 102 100 100 c55 55 103 99
107 98 4 -2 52 -48 108 -102z m70 -421 l180 180 105 -105 105 -105 -285 -285
-285 -285 -282 282 -283 283 105 105 105 105 177 -177 178 -178 180 180z"/>
</g>
</svg>
