<svg width="24" height="30" viewBox="0 0 24 30" fill="none" xmlns="http://www.w3.org/2000/svg">
<path fill-rule="evenodd" clip-rule="evenodd" d="M18.4622 12.1876C18.4622 15.8119 15.5691 18.7502 12.0006 18.7502C8.43217 18.7502 5.53906 15.8119 5.53906 12.1876C5.53906 8.56335 8.43217 5.625 12.0006 5.625C15.5691 5.625 18.4622 8.56335 18.4622 12.1876ZM15.3935 11.0036L11.3655 14.7538C11.0129 15.0824 10.4711 15.0824 10.1181 14.7538L8.60773 13.3475C8.23191 12.9975 8.20657 12.4046 8.55118 12.0229C8.89548 11.6412 9.47925 11.6155 9.85507 11.9654L10.7418 12.791L14.1461 9.62158C14.5219 9.2719 15.1057 9.29765 15.4503 9.67934C15.7946 10.0607 15.7692 10.654 15.3934 11.0036L15.3935 11.0036Z" fill="#FB8F2C"/>
<path fill-rule="evenodd" clip-rule="evenodd" d="M12.0001 0C5.37289 0 0 5.45674 0 12.1878C0 16.5026 2.20792 20.2934 5.5384 22.4591V29.0625C5.5384 29.3874 5.70407 29.6891 5.97635 29.8601C6.24833 30.0309 6.5883 30.0463 6.87452 29.9009L12 27.2981L17.1255 29.9009C17.4117 30.0463 17.7516 30.0309 18.0236 29.8601C18.2959 29.6891 18.4616 29.3874 18.4616 29.0625V22.4591C21.7921 20.2932 24 16.5023 24 12.1878C24 5.45691 18.6273 0 11.9999 0H12.0001ZM12.0001 20.6253C16.5885 20.6253 20.3077 16.8479 20.3077 12.1878C20.3077 7.52771 16.5885 3.75028 12.0001 3.75028C7.41181 3.75028 3.69253 7.52771 3.69253 12.1878C3.69253 16.8479 7.41181 20.6253 12.0001 20.6253Z" fill="#FB8F2C"/>
</svg>
